<svg id="Capa_1" data-name="Capa 1" xmlns="http://www.w3.org/2000/svg" width="125.659" height="25.834" viewBox="0 0 125.659 25.834">
  <path id="Trazado_219" data-name="Trazado 219" d="M389.08,30.4a2.688,2.688,0,1,1,2.678,2.474A2.588,2.588,0,0,1,389.08,30.4m.439,0a2.232,2.232,0,1,0,2.228-2.089,2.232,2.232,0,0,0-2.228,2.089m3.466,1.336h-.618l-.4-.943c-.043-.09-.043-.1-.186-.1h-.467v1.045h-.519V29.013c.414-.028.7-.043.992-.043.587,0,1.119.179,1.119.856a.761.761,0,0,1-.448.717c.223.383.523,1.15.541,1.178m-1.673-2.266v.764h.513c.309,0,.55-.09.55-.352,0-.337-.2-.424-.581-.424h-.492" transform="translate(-268.779 -19.269)" fill="#6b6d72"/>
  <rect id="Rect치ngulo_4963" data-name="Rect치ngulo 4963" width="3.265" height="16.777" transform="translate(89.629 4.002)" fill="#6b6d72"/>
  <path id="Trazado_220" data-name="Trazado 220" d="M253.351,30.419c-1.4,0-2.313.532-2.313,2v2.585c0,1.614.51,2.637,2.263,2.637,2.2,0,2.5-1.96,2.5-3.757,0-1.855-.257-3.475-2.446-3.475m.708,9.665a2.992,2.992,0,0,1-2.891-1.422h-.046v5.937h-3.3V28.107H250.6l.213,1.376h.043a3.611,3.611,0,0,1,3.318-1.633c3.571,0,4.969,2.783,4.969,6,0,3.339-1.379,6.23-5.089,6.23" transform="translate(-171.196 -19.238)" fill="#6b6d72"/>
  <path id="Trazado_221" data-name="Trazado 221" d="M350.25,40.862c-1.546,3.9-2.291,4.783-5.136,4.783a14.754,14.754,0,0,1-1.775-.114V42.8a12.02,12.02,0,0,0,1.308.068c1.258,0,1.565-.328,1.985-1.379l.535-1.33-4.6-11.483h3.571l2.709,8.1h.037l2.631-8.1h3.553Z" transform="translate(-236.65 -19.812)" fill="#6b6d72"/>
  <path id="Trazado_222" data-name="Trazado 222" d="M316.5,37.067v-4.5c0-3.358-1.286-4.715-4.715-4.715a11.842,11.842,0,0,0-5.624,1.4l1.027,2.245a8.908,8.908,0,0,1,4.292-1.215c1.19,0,1.728.352,1.728,1.45v.557c-2.919-.025-7.331.374-7.331,4.248a3.443,3.443,0,0,0,3.784,3.571,6.184,6.184,0,0,0,3.9-1.385,1.6,1.6,0,0,0,.031.17c.359,1.129,2.3,1.206,3.766,1.129l.111-2.5c-.618-.019-.965-.1-.965-.455m-3.222-.117a4.536,4.536,0,0,1-2.659.928,1.455,1.455,0,0,1-1.546-1.583c0-2.124,2.665-2.164,4.2-2.164Z" transform="translate(-211.304 -19.238)" fill="#6b6d72"/>
  <path id="Trazado_223" data-name="Trazado 223" d="M124.73,30.438c-2.056,0-2.69,1.237-2.69,3.528s.655,3.618,2.712,3.618c2.01,0,2.659-1.258,2.659-3.618,0-2.288-.618-3.528-2.681-3.528m0,9.641c-4.063,0-6.02-2.474-6.02-6.113,0-3.4,1.744-6.116,6.02-6.116,3.942,0,5.992,2.334,5.992,6.116,0,3.618-1.911,6.113-5.992,6.113" transform="translate(-82.006 -19.238)" fill="#6b6d72"/>
  <path id="Trazado_224" data-name="Trazado 224" d="M85.03,16.23v2.916h4.384V31.99h3.454V19.146h4.391V16.23Z" transform="translate(-58.739 -11.211)" fill="#6b6d72"/>
  <path id="Trazado_225" data-name="Trazado 225" d="M166.759,30.974c-1.679.043-1.84-.176-1.855-1.175V24.409h2.705V21.772H164.9V18.68h-3.228v3.092H159.74v2.637h1.911v5.565c0,2.82.773,3.71,3.945,3.71.584,0,1.144-.071,2.028-.161V30.918c-.241.022-.442.046-.85.056" transform="translate(-110.349 -12.904)" fill="#6b6d72"/>
  <rect id="Rect치ngulo_4964" data-name="Rect치ngulo 4964" width="3.268" height="16.777" transform="translate(71.507 4.002)" fill="#6b6d72"/>
  <path id="Trazado_226" data-name="Trazado 226" d="M200.148,37.067v-4.5c0-3.358-1.283-4.715-4.715-4.715a11.851,11.851,0,0,0-5.624,1.4l1.027,2.245a8.933,8.933,0,0,1,4.3-1.215c1.187,0,1.722.352,1.722,1.45v.557c-2.913-.025-7.325.374-7.325,4.248a3.438,3.438,0,0,0,3.778,3.571,6.162,6.162,0,0,0,3.9-1.385,1.07,1.07,0,0,0,.031.17c.359,1.129,2.3,1.206,3.766,1.129l.117-2.5c-.618-.019-.971-.1-.971-.455m-3.222-.117a4.514,4.514,0,0,1-2.659.928,1.455,1.455,0,0,1-1.546-1.583c0-2.124,2.659-2.164,4.2-2.164Z" transform="translate(-130.929 -19.238)" fill="#6b6d72"/>
  <path id="Trazado_227" data-name="Trazado 227" d="M6.734,4.479a.5.5,0,0,0,0-.955L.829.11C.371-.153,0,.064,0,.589v6.83c0,.526.371.739.829.476Z" transform="translate(0 0.002)" fill="#b5b5b6"/>
  <path id="Trazado_228" data-name="Trazado 228" d="M6.734,32.737a.506.506,0,0,0,0-.958l-5.906-3.4C.371,28.106,0,28.325,0,28.845v6.824c0,.526.371.742.829.476Z" transform="translate(0 -19.522)" fill="#b5b5b6"/>
  <path id="Trazado_229" data-name="Trazado 229" d="M6.734,60.987a.506.506,0,0,0,0-.959l-5.906-3.4C.371,56.349,0,56.566,0,57.091v6.824c0,.523.371.739.829.473Z" transform="translate(0 -39.034)" fill="#b5b5b6"/>
  <path id="Trazado_230" data-name="Trazado 230" d="M24.47,21.583c0,.526.368.739.826.476l5.906-3.4a.5.5,0,0,0,0-.955L25.3,14.3c-.458-.26-.826-.049-.826.476Z" transform="translate(-16.904 -9.802)" fill="#b5b5b6"/>
  <path id="Trazado_231" data-name="Trazado 231" d="M24.47,49.817c0,.526.368.742.826.476l5.906-3.4a.5.5,0,0,0,0-.955l-5.906-3.4c-.458-.266-.826-.049-.826.476Z" transform="translate(-16.904 -29.305)" fill="#b5b5b6"/>
  <path id="Trazado_232" data-name="Trazado 232" d="M48.91,35.7c0,.526.374.742.832.476l5.906-3.4a.506.506,0,0,0,0-.959l-5.906-3.4c-.458-.263-.832-.043-.832.476Z" transform="translate(-33.787 -19.549)" fill="#b5b5b6"/>
</svg>
